<?xml version="1.0" encoding="UTF-8" standalone="no"?>
<svg
   width="80mm"
   height="40mm"
   viewBox="0 0 80 40"
   version="1.1"
   xmlns="http://www.w3.org/2000/svg">
  
  <!-- First row of spacers -->
  <g transform="translate(10,10)">
    <circle cx="0" cy="0" r="4" style="fill:none;stroke:black;stroke-width:0.1"/>
    <circle cx="0" cy="0" r="2" style="fill:none;stroke:black;stroke-width:0.1"/>
  </g>
  
  <g transform="translate(30,10)">
    <circle cx="0" cy="0" r="4" style="fill:none;stroke:black;stroke-width:0.1"/>
    <circle cx="0" cy="0" r="2" style="fill:none;stroke:black;stroke-width:0.1"/>
  </g>
  
  <g transform="translate(50,10)">
    <circle cx="0" cy="0" r="4" style="fill:none;stroke:black;stroke-width:0.1"/>
    <circle cx="0" cy="0" r="2" style="fill:none;stroke:black;stroke-width:0.1"/>
  </g>
  
  <g transform="translate(70,10)">
    <circle cx="0" cy="0" r="4" style="fill:none;stroke:black;stroke-width:0.1"/>
    <circle cx="0" cy="0" r="2" style="fill:none;stroke:black;stroke-width:0.1"/>
  </g>
  
  <!-- Second row of spacers -->
  <g transform="translate(10,30)">
    <circle cx="0" cy="0" r="4" style="fill:none;stroke:black;stroke-width:0.1"/>
    <circle cx="0" cy="0" r="2" style="fill:none;stroke:black;stroke-width:0.1"/>
  </g>
  
  <g transform="translate(30,30)">
    <circle cx="0" cy="0" r="4" style="fill:none;stroke:black;stroke-width:0.1"/>
    <circle cx="0" cy="0" r="2" style="fill:none;stroke:black;stroke-width:0.1"/>
  </g>
  
  <g transform="translate(50,30)">
    <circle cx="0" cy="0" r="4" style="fill:none;stroke:black;stroke-width:0.1"/>
    <circle cx="0" cy="0" r="2" style="fill:none;stroke:black;stroke-width:0.1"/>
  </g>
  
  <g transform="translate(70,30)">
    <circle cx="0" cy="0" r="4" style="fill:none;stroke:black;stroke-width:0.1"/>
    <circle cx="0" cy="0" r="2" style="fill:none;stroke:black;stroke-width:0.1"/>
  </g>
</svg>
